{"accessors" : [{"bufferView" : 0, "byteOffset" : 0, "componentType" : 5123, "count" : 1782, "type" : "SCALAR", "max" : [1776], "min" : [0]}, {"bufferView" : 1, "byteOffset" : 0, "componentType" : 5126, "count" : 1777, "type" : "VEC3", "max" : [8.74389362335205, 35.644989013671875, 42.13046646118164], "min" : [-8.74389362335205, -35.644989013671875, -42.13046646118164], "name" : "POSITION"}, {"bufferView" : 1, "byteOffset" : 12, "componentType" : 5126, "count" : 1777, "type" : "VEC3", "max" : [0.9977746605873108, 1.0000044107437134, 0.9996216297149658], "min" : [-0.9977746605873108, -1.0000044107437134, -0.9980207085609436], "name" : "NORMAL"}, {"bufferView" : 1, "byteOffset" : 24, "componentType" : 5126, "count" : 1777, "type" : "VEC2", "max" : [0.9441099762916565, 0.9460279941558838], "min" : [0.03622499853372574, 0.050363000482320786], "name" : "TEXCOORD_0"}], "asset" : {"generator" : "Aspose.3D 21.12", "version" : "2.0"}, "buffers" : [{"uri" : "data:application/octet-stream;base64,", "byteLength" : 60596}], "bufferViews" : [{"buffer" : 0, "byteOffset" : 0, "byteLength" : 3564, "target" : 34963}, {"buffer" : 0, "byteOffset" : 3568, "byteLength" : 57024, "byteStride" : 32, "target" : 34962}], "images" : [{"uri" : "data:image/png;base64,"}], "materials" : [{"name" : "lambert2SG", "pbrMetallicRoughness" : {"baseColorFactor" : [1, 1, 1, 1], "baseColorTexture" : {"index" : 0, "texCoord" : 0}, "metallicFactor" : 0, "roughnessFactor" : 1}, "emissiveFactor" : [0, 0, 0], "alphaMode" : "OPAQUE", "doubleSided" : false}], "meshes" : [{"primitives" : [{"attributes" : {"POSITION" : 1, "NORMAL" : 2, "TEXCOORD_0" : 3}, "indices" : 0, "material" : 0, "mode" : 4}]}], "nodes" : [{"mesh" : 0, "name" : "Geo_Cat"}], "samplers" : [{"magFilter" : 9729, "minFilter" : 9986, "wrapS" : 10497, "wrapT" : 10497}], "scene" : 0, "scenes" : [{"nodes" : [0]}], "textures" : [{"sampler" : 0, "source" : 0}]}