{"accessors" : [{"bufferView" : 0, "byteOffset" : 0, "componentType" : 5123, "count" : 948, "type" : "SCALAR", "max" : [947], "min" : [0]}, {"bufferView" : 1, "byteOffset" : 0, "componentType" : 5126, "count" : 948, "type" : "VEC3", "max" : [226.72068786621094, 185.86094665527344, 74.25739288330078], "min" : [-171.80528259277344, 0.04719400033354759, -75.15730285644531], "name" : "POSITION"}, {"bufferView" : 1, "byteOffset" : 12, "componentType" : 5126, "count" : 948, "type" : "VEC3", "max" : [0.9977235794067383, 0.9988420009613037, 0.9991324543952942], "min" : [-0.993757963180542, -0.9988420009613037, -0.9991324543952942], "name" : "NORMAL"}, {"bufferView" : 1, "byteOffset" : 24, "componentType" : 5126, "count" : 948, "type" : "VEC2", "max" : [1, 1], "min" : [0, 0], "name" : "TEXCOORD_0"}, {"bufferView" : 0, "byteOffset" : 1896, "componentType" : 5123, "count" : 1728, "type" : "SCALAR", "max" : [1725], "min" : [0]}, {"bufferView" : 2, "byteOffset" : 0, "componentType" : 5126, "count" : 1726, "type" : "VEC3", "max" : [252.25831604003906, 189.1085662841797, 80.45421600341797], "min" : [-149.81884765625, -0.11674799770116806, -81.3541030883789], "name" : "POSITION"}, {"bufferView" : 2, "byteOffset" : 12, "componentType" : 5126, "count" : 1726, "type" : "VEC3", "max" : [0.9987073540687561, 0.9861975312232971, 1.0000044107437134], "min" : [-0.9946772456169128, -1.0000044107437134, -1.0000044107437134], "name" : "NORMAL"}, {"bufferView" : 2, "byteOffset" : 24, "componentType" : 5126, "count" : 1726, "type" : "VEC2", "max" : [1, 1], "min" : [0, 0], "name" : "TEXCOORD_0"}, {"bufferView" : 0, "byteOffset" : 5352, "componentType" : 5123, "count" : 192, "type" : "SCALAR", "max" : [191], "min" : [0]}, {"bufferView" : 3, "byteOffset" : 0, "componentType" : 5126, "count" : 192, "type" : "VEC3", "max" : [-121.7315902709961, 111.72547912597656, 25.155488967895508], "min" : [-127.6197738647461, 106.1800308227539, -26.05537223815918], "name" : "POSITION"}, {"bufferView" : 3, "byteOffset" : 12, "componentType" : 5126, "count" : 192, "type" : "VEC3", "max" : [0.7361926436424255, 0.9029911756515503, 0.7846022248268127], "min" : [-0.7361926436424255, -0.9029911756515503, -0.7846022248268127], "name" : "NORMAL"}, {"bufferView" : 3, "byteOffset" : 24, "componentType" : 5126, "count" : 192, "type" : "VEC2", "max" : [1, 1], "min" : [0, 0], "name" : "TEXCOORD_0"}, {"bufferView" : 0, "byteOffset" : 5736, "componentType" : 5123, "count" : 192, "type" : "SCALAR", "max" : [191], "min" : [0]}, {"bufferView" : 4, "byteOffset" : 0, "componentType" : 5126, "count" : 192, "type" : "VEC3", "max" : [-124.73081970214844, 111.75123596191406, 24.229001998901367], "min" : [-127.31036376953125, 109.27284240722656, -24.630321502685547], "name" : "POSITION"}, {"bufferView" : 4, "byteOffset" : 12, "componentType" : 5126, "count" : 192, "type" : "VEC3", "max" : [0.7361926436424255, 0.9029527306556702, 0.7846022248268127], "min" : [-0.7361926436424255, -0.9029911756515503, -0.7846022248268127], "name" : "NORMAL"}, {"bufferView" : 4, "byteOffset" : 24, "componentType" : 5126, "count" : 192, "type" : "VEC2", "max" : [1, 1], "min" : [0, 0], "name" : "TEXCOORD_0"}], "asset" : {"generator" : "Aspose.3D 21.12", "version" : "2.0"}, "buffers" : [{"uri" : "data:application/octet-stream;base64,", "byteLength" : 104060}], "bufferViews" : [{"buffer" : 0, "byteOffset" : 0, "byteLength" : 6120, "target" : 34963}, {"buffer" : 0, "byteOffset" : 6124, "byteLength" : 30336, "byteStride" : 32, "target" : 34962}, {"buffer" : 0, "byteOffset" : 36464, "byteLength" : 55296, "byteStride" : 32, "target" : 34962}, {"buffer" : 0, "byteOffset" : 91764, "byteLength" : 6144, "byteStride" : 32, "target" : 34962}, {"buffer" : 0, "byteOffset" : 97912, "byteLength" : 6144, "byteStride" : 32, "target" : 34962}], "materials" : [{"name" : "FFCC88", "pbrMetallicRoughness" : {"baseColorFactor" : [1, 0.8, 0.533333, 1], "metallicFactor" : 0, "roughnessFactor" : 0.905882353}, "emissiveFactor" : [0, 0, 0], "alphaMode" : "OPAQUE", "doubleSided" : false}, {"name" : "009688", "pbrMetallicRoughness" : {"baseColorFactor" : [0, 0.588235, 0.533333, 1], "metallicFactor" : 0, "roughnessFactor" : 0.905882353}, "emissiveFactor" : [0, 0, 0], "alphaMode" : "OPAQUE", "doubleSided" : false}, {"name" : "1A1A1A", "pbrMetallicRoughness" : {"baseColorFactor" : [0.101961, 0.101961, 0.101961, 1], "metallicFactor" : 0, "roughnessFactor" : 0.905882353}, "emissiveFactor" : [0, 0, 0], "alphaMode" : "OPAQUE", "doubleSided" : false}, {"name" : "FFFFFF", "pbrMetallicRoughness" : {"baseColorFactor" : [1, 1, 1, 1], "metallicFactor" : 0, "roughnessFactor" : 0.905882353}, "emissiveFactor" : [0, 0, 0], "alphaMode" : "OPAQUE", "doubleSided" : false}], "meshes" : [{"primitives" : [{"attributes" : {"POSITION" : 1, "NORMAL" : 2, "TEXCOORD_0" : 3}, "indices" : 0, "material" : 0, "mode" : 4}, {"attributes" : {"POSITION" : 5, "NORMAL" : 6, "TEXCOORD_0" : 7}, "indices" : 4, "material" : 1, "mode" : 4}, {"attributes" : {"POSITION" : 9, "NORMAL" : 10, "TEXCOORD_0" : 11}, "indices" : 8, "material" : 2, "mode" : 4}, {"attributes" : {"POSITION" : 13, "NORMAL" : 14, "TEXCOORD_0" : 15}, "indices" : 12, "material" : 3, "mode" : 4}]}], "nodes" : [{"mesh" : 0, "name" : "Cube.039"}], "scene" : 0, "scenes" : [{"nodes" : [0]}]}