{"accessors" : [{"bufferView" : 0, "byteOffset" : 0, "componentType" : 5123, "count" : 1992, "type" : "SCALAR", "max" : [1987], "min" : [0]}, {"bufferView" : 1, "byteOffset" : 0, "componentType" : 5126, "count" : 1988, "type" : "VEC3", "max" : [149.23638916015625, 342.6547546386719, 1008.94140625], "min" : [-149.23638916015625, -342.6547546386719, -1008.9414672851562], "name" : "POSITION"}, {"bufferView" : 1, "byteOffset" : 12, "componentType" : 5126, "count" : 1988, "type" : "VEC3", "max" : [0.9972624182701111, 0.9933768510818481, 0.9919191002845764], "min" : [-0.9972624182701111, -1.0000044107437134, -0.9919191002845764], "name" : "NORMAL"}, {"bufferView" : 1, "byteOffset" : 24, "componentType" : 5126, "count" : 1988, "type" : "VEC2", "max" : [0.9692959785461426, 0.9685860276222229], "min" : [0.11246100068092346, 0.03683900088071823], "name" : "TEXCOORD_0"}], "asset" : {"generator" : "Aspose.3D 21.12", "version" : "2.0"}, "buffers" : [{"uri" : "data:application/octet-stream;base64,", "byteLength" : 67736}], "bufferViews" : [{"buffer" : 0, "byteOffset" : 0, "byteLength" : 3984, "target" : 34963}, {"buffer" : 0, "byteOffset" : 3988, "byteLength" : 63744, "byteStride" : 32, "target" : 34962}], "images" : [{"uri" : "data:image/png;base64,"}], "materials" : [{"name" : "lambert2SG", "pbrMetallicRoughness" : {"baseColorFactor" : [1, 1, 1, 1], "baseColorTexture" : {"index" : 0, "texCoord" : 0}, "metallicFactor" : 0, "roughnessFactor" : 1}, "emissiveFactor" : [0, 0, 0], "alphaMode" : "OPAQUE", "doubleSided" : false}], "meshes" : [{"primitives" : [{"attributes" : {"POSITION" : 1, "NORMAL" : 2, "TEXCOORD_0" : 3}, "indices" : 0, "material" : 0, "mode" : 4}]}], "nodes" : [{"mesh" : 0, "name" : "Geo_Diplodocus"}], "samplers" : [{"magFilter" : 9729, "minFilter" : 9986, "wrapS" : 10497, "wrapT" : 10497}], "scene" : 0, "scenes" : [{"nodes" : [0]}], "textures" : [{"sampler" : 0, "source" : 0}]}