{"accessors" : [{"bufferView" : 0, "byteOffset" : 0, "componentType" : 5123, "count" : 3048, "type" : "SCALAR", "max" : [3030], "min" : [0]}, {"bufferView" : 1, "byteOffset" : 0, "componentType" : 5126, "count" : 3031, "type" : "VEC3", "max" : [62.318763732910156, 122.33513641357422, 271.1417236328125], "min" : [-62.318763732910156, -122.33513641357422, -271.1417236328125], "name" : "POSITION"}, {"bufferView" : 1, "byteOffset" : 12, "componentType" : 5126, "count" : 3031, "type" : "VEC3", "max" : [0.9986562728881836, 0.9999899864196777, 1.0000044107437134], "min" : [-0.9986562728881836, -1.0000044107437134, -0.9957519173622131], "name" : "NORMAL"}, {"bufferView" : 1, "byteOffset" : 24, "componentType" : 5126, "count" : 3031, "type" : "VEC2", "max" : [0.9551720023155212, 0.9547200202941895], "min" : [0.033785998821258545, 0.02941799908876419], "name" : "TEXCOORD_0"}], "asset" : {"generator" : "Aspose.3D 21.12", "version" : "2.0"}, "buffers" : [{"uri" : "data:application/octet-stream;base64,", "byteLength" : 103640}], "bufferViews" : [{"buffer" : 0, "byteOffset" : 0, "byteLength" : 6096, "target" : 34963}, {"buffer" : 0, "byteOffset" : 6100, "byteLength" : 97536, "byteStride" : 32, "target" : 34962}], "images" : [{"uri" : "data:image/png;base64,"}], "materials" : [{"name" : "lambert2SG", "pbrMetallicRoughness" : {"baseColorFactor" : [1, 1, 1, 1], "baseColorTexture" : {"index" : 0, "texCoord" : 0}, "metallicFactor" : 0, "roughnessFactor" : 1}, "emissiveFactor" : [0, 0, 0], "alphaMode" : "OPAQUE", "doubleSided" : false}], "meshes" : [{"primitives" : [{"attributes" : {"POSITION" : 1, "NORMAL" : 2, "TEXCOORD_0" : 3}, "indices" : 0, "material" : 0, "mode" : 4}]}], "nodes" : [{"mesh" : 0, "name" : "Geo_Dinosaur"}], "samplers" : [{"magFilter" : 9729, "minFilter" : 9986, "wrapS" : 10497, "wrapT" : 10497}], "scene" : 0, "scenes" : [{"nodes" : [0]}], "textures" : [{"sampler" : 0, "source" : 0}]}